# xmcd
#
# Track frame offsets: 
#        150
#        20060
#        35338
#        49626
#        64528
#        81378
#        100352
#        120079
#        135288
#        152519
#        169025
#        188519
#        206923
#
# Disc length: 2909 seconds
#
# Revision: 0
# Processed by: cddbd v1.5.2PL0 Copyright (c) Steve Scherf et al.
# Submitted via: ExactAudioCopy v0.95a5
#
DISCID=9e0b5b0d
DTITLE=JOannaKnitter Blues&Folk Connection - Cruel Cruel World
DYEAR=2013
DGENRE=Blues
TTITLE0=Nine hundred Miles
TTITLE1=Stagger Lee
TTITLE2=Rub Alcohol Blues
TTITLE3=Maybe Tomorrow
TTITLE4=Tom Dodey
TTITLE5=Got's Gonna Cut You Down
TTITLE6=Katie Cruel
TTITLE7=John Handy
TTITLE8=Panic
TTITLE9=Peculiar
TTITLE10=Pretty Polly's Revange
TTITLE11=Duncan and Brady
TTITLE12=Spinning
EXTD=
EXTT0=
EXTT1=
EXTT2=
EXTT3=
EXTT4=
EXTT5=
EXTT6=
EXTT7=
EXTT8=
EXTT9=
EXTT10=
EXTT11=
EXTT12=
PLAYORDER=
